<svg width="29" height="29" xmlns="http://www.w3.org/2000/svg" xmlns:xlink="http://www.w3.org/1999/xlink" xml:space="preserve" overflow="hidden"><defs><clipPath id="clip0"><rect x="1042" y="720" width="29" height="29"/></clipPath><linearGradient x1="1056" y1="742.917" x2="1056" y2="725.082" gradientUnits="userSpaceOnUse" spreadMethod="reflect" id="fill1"><stop offset="0" stop-color="#2A69A2"/><stop offset="0.48" stop-color="#609ED6"/><stop offset="1" stop-color="#9DC3E6"/></linearGradient></defs><g clip-path="url(#clip0)" transform="translate(-1042 -720)"><path d="M1047.08 729.406 1051.41 725.082 1056 729.676 1060.59 725.082 1064.92 729.406 1060.32 734 1064.92 738.593 1060.59 742.917 1056 738.324 1051.41 742.917 1047.08 738.593 1051.68 734Z" fill="url(#fill1)" fill-rule="evenodd"/><path d="M1043.5 725.833C1043.5 723.44 1045.44 721.5 1047.83 721.5L1065.17 721.5C1067.56 721.5 1069.5 723.44 1069.5 725.833L1069.5 743.167C1069.5 745.56 1067.56 747.5 1065.17 747.5L1047.83 747.5C1045.44 747.5 1043.5 745.56 1043.5 743.167Z" stroke="#4472C4" stroke-width="3.4375" stroke-linejoin="round" stroke-miterlimit="10" fill="none" fill-rule="evenodd"/></g></svg>