<svg width="29" height="29" xmlns="http://www.w3.org/2000/svg" xmlns:xlink="http://www.w3.org/1999/xlink" xml:space="preserve" overflow="hidden"><defs><clipPath id="clip0"><rect x="1097" y="775" width="29" height="29"/></clipPath><linearGradient x1="1111" y1="798.935" x2="1111" y2="779.065" gradientUnits="userSpaceOnUse" spreadMethod="reflect" id="fill1"><stop offset="0" stop-color="#2A4B86"/><stop offset="0.48" stop-color="#4A76C6"/><stop offset="1" stop-color="#8FAADC"/></linearGradient></defs><g clip-path="url(#clip0)" transform="translate(-1097 -775)"><path d="M1111 779.065C1112.69 779.065 1114.06 780.434 1114.06 782.123 1114.06 783.812 1112.69 785.18 1111 785.18 1109.31 785.18 1107.94 783.812 1107.94 782.123 1107.94 780.434 1109.31 779.065 1111 779.065ZM1111 798.935C1109.31 798.935 1107.94 797.566 1107.94 795.877 1107.94 794.188 1109.31 792.819 1111 792.819 1112.69 792.819 1114.06 794.188 1114.06 795.877 1114.06 797.566 1112.69 798.935 1111 798.935ZM1101.45 785.942 1120.55 785.942 1120.55 792.057 1101.45 792.057Z" fill="url(#fill1)" fill-rule="evenodd"/><path d="M1098.5 780.833C1098.5 778.44 1100.44 776.5 1102.83 776.5L1120.17 776.5C1122.56 776.5 1124.5 778.44 1124.5 780.833L1124.5 798.167C1124.5 800.56 1122.56 802.5 1120.17 802.5L1102.83 802.5C1100.44 802.5 1098.5 800.56 1098.5 798.167Z" stroke="#4472C4" stroke-width="3.4375" stroke-linejoin="round" stroke-miterlimit="10" fill="none" fill-rule="evenodd"/></g></svg>