<svg width="29" height="29" xmlns="http://www.w3.org/2000/svg" xmlns:xlink="http://www.w3.org/1999/xlink" xml:space="preserve" overflow="hidden"><defs><clipPath id="clip0"><rect x="1207" y="885" width="29" height="29"/></clipPath><linearGradient x1="1221" y1="908.554" x2="1221" y2="889.446" gradientUnits="userSpaceOnUse" spreadMethod="reflect" id="fill1"><stop offset="0" stop-color="#2A4B86"/><stop offset="0.48" stop-color="#4A76C6"/><stop offset="1" stop-color="#8FAADC"/></linearGradient></defs><g clip-path="url(#clip0)" transform="translate(-1207 -885)"><path d="M1211.45 895.942 1217.94 895.942 1217.94 889.446 1224.06 889.446 1224.06 895.942 1230.55 895.942 1230.55 902.057 1224.06 902.057 1224.06 908.554 1217.94 908.554 1217.94 902.057 1211.45 902.057Z" fill="url(#fill1)" fill-rule="evenodd"/><path d="M1208.5 890.833C1208.5 888.44 1210.44 886.5 1212.83 886.5L1230.17 886.5C1232.56 886.5 1234.5 888.44 1234.5 890.833L1234.5 908.167C1234.5 910.56 1232.56 912.5 1230.17 912.5L1212.83 912.5C1210.44 912.5 1208.5 910.56 1208.5 908.167Z" stroke="#4472C4" stroke-width="3.4375" stroke-linejoin="round" stroke-miterlimit="10" fill="none" fill-rule="evenodd"/></g></svg>